<svg width="362" height="424" viewBox="0 0 362 424" fill="none" xmlns="http://www.w3.org/2000/svg">
<path d="M158.933 3.33331C95.8665 19.8666 67.8665 97.6 104.933 153.6C112 164.4 124.533 176.4 135.333 182.667C145.867 188.8 153.333 197.333 161.333 212.933C166.267 222.133 173.333 239.333 173.333 241.6C173.333 242.133 170.4 238 166.667 232.4C137.467 187.867 79.5998 177.467 37.7332 209.2C22.9332 220.4 9.73317 239.867 3.8665 259.333C1.33317 267.467 0.799837 272.533 0.666504 286.667C0.666504 304.933 1.99984 312.533 7.59984 326.4C15.4665 345.867 32.6665 365.067 50.5332 374.533C88.3998 394.4 134.533 384.533 161.2 350.8C164.8 346.267 168.933 340.267 170.4 337.333C174.267 330 174 333.2 169.867 344.133C164.8 357.733 156.8 372.267 149.2 381.6C132.4 402.8 104.4 418.667 78.2665 422C73.1998 422.533 68.9332 423.333 68.6665 423.6C68.3998 423.867 119.067 424 181.333 424C243.467 424 293.733 423.6 292.933 423.067C292 422.533 289.467 422 287.2 422C280.267 422 260.133 415.6 249.2 409.867C230.8 400.267 213.6 383.6 203.333 365.2C198.533 356.933 190.267 337.867 191.067 337.2C191.333 336.933 194 340.533 197.067 345.333C207.2 360.667 224 373.467 242.933 380.4C251.733 383.6 254.533 384 270.667 384C286.8 384 289.6 383.6 298.4 380.4C328.533 369.467 349.867 346.267 358.933 314.4C361.333 305.867 361.867 300.933 361.867 286.667C361.733 270.933 361.333 268.133 357.467 256.667C345.333 220.4 317.2 196.4 280.8 191.2C249.467 186.8 215.733 202.8 196.533 231.333C193.333 236.133 190.667 239.733 190.667 239.333C190.667 237.6 196.533 223.6 200.533 215.6C206.8 203.067 215.6 191.6 224.8 183.867C242.533 168.933 254 156.267 259.733 145.067C267.867 129.467 270.8 116.667 270.933 98C271.2 73.8666 264.667 54.2666 250.133 35.7333C241.333 24.5333 234 18.4 221.067 11.3333C201.867 0.933311 179.2 -1.86669 158.933 3.33331Z" fill="black"/>
</svg>
