<svg width="363" height="424" viewBox="0 0 363 424" fill="none" xmlns="http://www.w3.org/2000/svg">
<path d="M169.333 18.4C152.4 44.5333 120.4 90 107.067 106.667C91.0666 126.8 51.0666 166.533 8.39997 204.8L0.133301 212.133L24.4 234.267C56.6666 263.733 91.6 298.667 104.4 314.4C117.333 330.267 143.733 367.333 164.667 399.067C173.467 412.267 180.933 423.2 181.333 423.2C181.733 423.2 189.867 411.467 199.6 396.933C219.333 367.333 241.867 335.6 254.667 319.067C265.867 304.667 298.533 271.333 328 244.133C340.8 232.4 353.867 220.267 357.067 217.333L362.8 212L339.867 191.333C303.867 158.8 267.467 122 253.333 103.6C238.267 84 211.467 46 194.4 19.7333C187.6 9.33332 181.733 0.799998 181.333 0.799998C180.933 0.799998 175.6 8.66664 169.333 18.4Z" fill="#EC0505"/>
</svg>
