<svg width="362" height="422" viewBox="0 0 362 422" fill="none" xmlns="http://www.w3.org/2000/svg">
<path d="M71.1998 3.33334C39.3331 11.6 15.1998 37.0667 3.86647 74C1.1998 82.5333 0.799805 86.9333 0.799805 103.333C0.799805 121.6 0.933138 123.333 4.93314 134.933C15.8665 166.533 30.9331 188 84.6665 248.667C118.533 286.933 131.733 303.2 145.6 323.867C166.933 355.733 179.733 389.333 180.133 415.067C180.266 422 180.533 423.067 181.333 420C181.866 417.733 182.4 412.933 182.533 409.333C182.933 395.067 191.066 369.467 201.866 349.333C216.4 321.867 230.933 303.2 286.8 240.533C320.666 202.533 336.4 181.867 346.933 161.2C358 139.6 361.866 124.933 361.866 104C361.866 71.8667 350.4 45.0667 327.733 23.8667C299.2 -2.79999 256.8 -6.53332 224.666 14.6667C217.466 19.4667 205.333 31.3333 199.2 39.3333C194 46.4 186 63.3333 183.333 73.3333L180.933 82.2667L178.533 73.2C177.2 68.2667 173.733 59.3333 170.8 53.4667C151.2 13.7333 110 -6.93332 71.1998 3.33334Z" fill="#EC0505"/>
</svg>
