<svg width="363" height="423" viewBox="0 0 363 423" fill="none" xmlns="http://www.w3.org/2000/svg">
<path d="M180.933 10.7333C178.8 32.3333 169.2 56.8666 153.867 79.6666C138.933 101.933 124.933 117.8 69.9998 174.333C30.3998 215.133 13.1998 238.733 4.79983 264.067C-6.5335 297.933 6.6665 340.067 35.7332 363C52.1332 376.067 71.1998 382.733 91.9998 382.867C107.333 382.867 117.867 380.333 133.2 372.867C146.533 366.333 162.4 351.533 169.333 339.267C171.733 335 173.867 331.8 174.133 332.067C174.4 332.333 173.067 336.6 171.333 341.8C159.733 373.933 139.733 397.267 112.8 410.333C100.667 416.2 84.5332 421 77.0665 421C74.3998 421 71.8665 421.4 71.5998 421.933C71.1998 422.6 121.2 423 182.667 423C244.133 423 294.267 422.867 294 422.6C293.867 422.333 289.733 421.667 284.8 420.867C274.133 419.4 262.4 415.533 250 409.4C223.733 396.333 204.4 374.067 192.667 342.867C188 330.6 188.533 329.667 194.267 339.533C211.867 369.133 249.067 387.4 282 382.467C304.533 379.133 321.2 370.467 336.933 353.933C352.4 337.667 360.8 318.067 362.267 295.533C364.8 254.867 348.267 227.4 278.667 156.333C259.2 136.6 238.933 115.4 233.6 109.4C202 73.1333 186 41.8 182.8 9.66665L181.867 0.333311L180.933 10.7333Z" fill="black"/>
</svg>
